<svg data-v-423bf9ae="" xmlns="http://www.w3.org/2000/svg" viewBox="0 0 411 90" class="iconLeft"><!----><!----><!----><g data-v-423bf9ae="" id="9de53ac6-32fd-47f5-a778-efd584ee0f97" fill="#000000" transform="matrix(6.430868219789529,0,0,6.430868219789529,105.49839171809398,-7.122186567216055)"><path d="M2.04 6.35L0.70 6.93L0.70 12.73L2.06 12.13L2.06 8.05L2.06 8.05Q2.58 7.42 3.34 7.48L3.34 7.48L3.34 7.48Q4.09 7.53 4.18 8.55L4.18 8.55L4.18 12.70L5.54 12.11L5.54 8.11L5.54 8.11Q6.08 7.36 6.85 7.50L6.85 7.50L6.85 7.50Q7.62 7.64 7.58 9.03L7.58 9.03L7.58 12.70L8.96 12.08L8.96 7.99L8.96 7.99Q8.78 6.51 7.48 6.53L7.48 6.53L7.48 6.53Q6.17 6.56 5.44 7.73L5.44 7.73L5.44 7.73Q5.16 6.56 4.01 6.54L4.01 6.54L4.01 6.54Q2.85 6.51 2.03 7.73L2.03 7.73L2.04 6.35ZM13.01 6.43L13.01 6.43L13.01 6.43Q12.09 6.36 11.08 6.88L11.08 6.88L11.08 6.88Q10.06 7.40 10.19 8.65L10.19 8.65L11.75 7.95L11.75 7.95Q11.63 7.10 12.38 6.96L12.38 6.96L12.38 6.96Q13.13 6.82 13.54 7.21L13.54 7.21L13.54 7.21Q13.96 7.61 13.90 8.80L13.90 8.80L13.90 8.80Q13.44 8.50 12.82 8.42L12.82 8.42L12.82 8.42Q12.20 8.33 11.19 8.85L11.19 8.85L11.19 8.85Q10.18 9.37 9.93 10.38L9.93 10.38L9.93 10.38Q9.68 11.38 10.46 12.06L10.46 12.06L10.46 12.06Q11.23 12.73 11.96 12.70L11.96 12.70L11.96 12.70Q12.68 12.67 13.04 12.39L13.04 12.39L13.04 12.39Q13.41 12.10 13.92 11.57L13.92 11.57L13.92 11.57Q13.91 12.44 14.12 12.76L14.12 12.76L15.47 12.04L15.47 12.04Q15.13 11.63 15.20 11.02L15.20 11.02L15.20 8.16L15.20 8.16Q15.22 7.49 14.57 6.99L14.57 6.99L14.57 6.99Q13.92 6.50 13.01 6.43ZM13.95 9.32L13.93 9.68L13.93 11.18L13.93 11.18Q12.77 12.11 11.82 11.55L11.82 11.55L11.82 11.55Q10.88 10.99 10.75 10.16L10.75 10.16L10.75 10.16Q10.62 9.34 11.57 9.31L11.57 9.31L11.57 9.31Q12.52 9.28 13.32 10.00L13.32 10.00L13.95 9.32ZM18.42 4.44L17.19 4.94L17.19 6.84L16.89 6.84L15.74 7.86L17.18 7.86L17.10 10.19L17.10 10.19Q17.11 11.87 17.99 12.42L17.99 12.42L17.99 12.42Q18.87 12.97 19.76 12.56L19.76 12.56L19.76 12.56Q20.65 12.15 20.97 11.09L20.97 11.09L20.88 10.93L20.88 10.93Q19.98 12.06 19.11 11.64L19.11 11.64L19.11 11.64Q18.23 11.22 18.38 9.78L18.38 9.78L18.43 7.85L19.27 7.85L21.34 6.79L18.42 6.79L18.42 4.44ZM23.86 4.44L22.62 4.94L22.62 6.84L22.33 6.84L21.18 7.86L22.61 7.86L22.54 10.19L22.54 10.19Q22.54 11.87 23.42 12.42L23.42 12.42L23.42 12.42Q24.30 12.97 25.19 12.56L25.19 12.56L25.19 12.56Q26.09 12.15 26.41 11.09L26.41 11.09L26.31 10.93L26.31 10.93Q25.42 12.06 24.54 11.64L24.54 11.64L24.54 11.64Q23.67 11.22 23.82 9.78L23.82 9.78L23.86 7.85L24.71 7.85L26.78 6.79L23.85 6.79L23.86 4.44ZM28.46 3.44L27.19 3.95L27.19 12.73L28.52 12.17L28.52 8.05L28.52 8.05Q29.16 7.22 30.15 7.44L30.15 7.44L30.15 7.44Q31.14 7.66 31.10 8.69L31.10 8.69L31.10 12.77L32.40 12.24L32.40 8.32L32.40 8.32Q32.33 6.56 30.91 6.47L30.91 6.47L30.91 6.47Q29.48 6.38 28.46 7.73L28.46 7.73L28.46 3.44ZM36.69 6.51L36.69 6.51L36.69 6.51Q35.60 6.35 34.66 7.19L34.66 7.19L34.66 7.19Q33.72 8.03 33.46 9.15L33.46 9.15L33.46 9.15Q33.20 10.27 33.54 11.09L33.54 11.09L33.54 11.09Q33.89 11.91 34.47 12.28L34.47 12.28L34.47 12.28Q35.05 12.66 35.85 12.71L35.85 12.71L35.85 12.71Q36.64 12.76 37.41 12.08L37.41 12.08L37.41 12.08Q38.18 11.41 38.64 10.54L38.64 10.54L38.54 10.47L38.54 10.47Q37.49 11.57 36.41 11.52L36.41 11.52L36.41 11.52Q35.33 11.47 34.99 10.85L34.99 10.85L36.93 9.78L36.93 9.78Q38.38 8.81 38.08 7.75L38.08 7.75L38.08 7.75Q37.77 6.68 36.69 6.51ZM34.47 8.16L34.47 8.16L34.47 8.16Q34.71 7.66 35.32 7.40L35.32 7.40L35.32 7.40Q35.93 7.14 36.48 7.68L36.48 7.68L36.48 7.68Q37.02 8.21 36.86 8.90L36.86 8.90L36.86 8.90Q36.69 9.60 34.78 10.57L34.78 10.57L34.78 10.57Q34.47 10.04 34.35 9.35L34.35 9.35L34.35 9.35Q34.23 8.67 34.47 8.16ZM43.37 9.39L44.73 12.74L45.92 11.98L45.81 11.66L47.41 6.67L46.96 6.47L45.51 11.04L43.57 6.41L42.43 7.06L43.09 8.69L42.30 11.04L40.35 6.41L39.22 7.06L41.51 12.74L42.71 11.98L42.60 11.66L43.37 9.39Z"></path></g><defs data-v-423bf9ae=""><linearGradient data-v-423bf9ae="" gradientTransform="rotate(25)" id="a369c426-fb22-4987-b4b9-868159eee24c" x1="0%" y1="0%" x2="100%" y2="0%"><stop data-v-423bf9ae="" offset="0%" style="stop-color: rgb(112, 36, 61); stop-opacity: 1;"></stop><stop data-v-423bf9ae="" offset="100%" style="stop-color: rgb(193, 87, 103); stop-opacity: 1;"></stop></linearGradient></defs><g data-v-423bf9ae="" id="56bd2cfc-05c4-43cc-a1fb-f8625aed534f" transform="matrix(2.8125,0,0,2.8125,0,0)" stroke="none" fill="url(#a369c426-fb22-4987-b4b9-868159eee24c)"><path d="M29.625 1l-3.099 3.172H4.054v23.657h22.472L29.625 31H1V1h28.625M32 0H0v32h32l-5.054-5.172H5.054V5.172h21.893L32 0z"></path><path d="M21.038 10.962v10.076H10.962V10.962h10.076m1-1H9.962v12.076h12.076V9.962z"></path></g><!----></svg>